<svg width="29" height="21" viewBox="0 0 29 21" fill="none" xmlns="http://www.w3.org/2000/svg">
<path d="M0.5 2C0.5 0.89543 1.39543 0 2.5 0H26.5C27.6046 0 28.5 0.895431 28.5 2V19C28.5 20.1046 27.6046 21 26.5 21H2.5C1.39543 21 0.5 20.1046 0.5 19V2Z" fill="#F7F2F2"/>
<path d="M2.05682 15V6.27273H5.10795C5.71591 6.27273 6.21733 6.37784 6.61222 6.58807C7.0071 6.79545 7.30114 7.07528 7.49432 7.42756C7.6875 7.77699 7.78409 8.16477 7.78409 8.59091C7.78409 8.96591 7.71733 9.27557 7.58381 9.51989C7.45313 9.7642 7.27983 9.95739 7.06392 10.0994C6.85085 10.2415 6.61932 10.3466 6.36932 10.4148V10.5C6.63636 10.517 6.90483 10.6108 7.17472 10.7812C7.4446 10.9517 7.67045 11.196 7.85227 11.5142C8.03409 11.8324 8.125 12.2216 8.125 12.6818C8.125 13.1193 8.02557 13.5128 7.8267 13.8622C7.62784 14.2116 7.31392 14.4886 6.88494 14.6932C6.45597 14.8977 5.89773 15 5.21023 15H2.05682ZM3.11364 14.0625H5.21023C5.90057 14.0625 6.39063 13.929 6.6804 13.6619C6.97301 13.392 7.11932 13.0653 7.11932 12.6818C7.11932 12.3864 7.04403 12.1136 6.89347 11.8636C6.7429 11.6108 6.52841 11.4091 6.25 11.2585C5.97159 11.1051 5.64205 11.0284 5.26136 11.0284H3.11364V14.0625ZM3.11364 10.108H5.07386C5.39205 10.108 5.67898 10.0455 5.93466 9.92045C6.19318 9.79545 6.39773 9.61932 6.5483 9.39205C6.7017 9.16477 6.77841 8.89773 6.77841 8.59091C6.77841 8.20739 6.64489 7.8821 6.37784 7.61506C6.1108 7.34517 5.6875 7.21023 5.10795 7.21023H3.11364V10.108ZM9.86151 6.27273H11.1229L14.0888 13.517H14.1911L17.157 6.27273H18.4183V15H17.4297V8.36932H17.3445L14.6172 15H13.6626L10.9354 8.36932H10.8501V15H9.86151V6.27273ZM20.2475 15V14.233L24.9521 7.21023H20.1964V6.27273H26.2134V7.03977L21.5089 14.0625H26.2646V15H20.2475Z" fill="#991B1B"/>
</svg>
